<svg width="236" height="38" viewBox="0 0 236 38" fill="none" xmlns="http://www.w3.org/2000/svg">
<g clip-path="url(#clip0_1_2)">
<rect width="236" height="38" fill="white"/>
<path d="M0 0H163L154.254 38H0V0Z" fill="#C9202F"/>
<path d="M23.48 34.48C21.3467 34.48 19.5333 34.08 18.04 33.28C16.5733 32.48 15.4533 31.3733 14.68 29.96C13.9067 28.5467 13.52 26.92 13.52 25.08C13.52 23.32 13.9733 21.7333 14.88 20.32C15.7867 18.9067 17 17.7867 18.52 16.96C20.04 16.1067 21.7333 15.68 23.6 15.68C26.1067 15.68 28.16 16.4133 29.76 17.88C31.3867 19.32 32.44 21.4133 32.92 24.16L19.32 28.48L18.08 25.44L27.92 22.12L26.76 22.64C26.5467 21.9467 26.16 21.3467 25.6 20.84C25.0667 20.3067 24.2533 20.04 23.16 20.04C22.3333 20.04 21.6 20.24 20.96 20.64C20.3467 21.0133 19.8667 21.56 19.52 22.28C19.2 22.9733 19.04 23.8 19.04 24.76C19.04 25.8533 19.24 26.7733 19.64 27.52C20.04 28.24 20.5867 28.7867 21.28 29.16C21.9733 29.5333 22.7467 29.72 23.6 29.72C24.2133 29.72 24.8 29.6133 25.36 29.4C25.9467 29.1867 26.52 28.9067 27.08 28.56L29.56 32.72C28.6267 33.2533 27.6133 33.68 26.52 34C25.4533 34.32 24.44 34.48 23.48 34.48ZM38.6294 8.84H44.2294V16.44H48.4694V20.8H44.2294V34H38.6294V20.8H35.9094V16.44H38.6294V8.84ZM52.7316 34V2.44H58.3316V34H52.7316ZM62.7716 22.12L70.6916 34H64.1716L59.0916 25.32L62.7716 22.12ZM56.6516 29.16L56.0916 23.84L66.6516 16.08L70.0516 19.08L56.6516 29.16ZM74.5675 16.52H80.1675V34H74.5675V16.52ZM74.4475 10.32C74.4475 9.49333 74.7675 8.81333 75.4075 8.28C76.0742 7.74667 76.7808 7.48 77.5275 7.48C78.2742 7.48 78.9542 7.74667 79.5675 8.28C80.2075 8.81333 80.5275 9.49333 80.5275 10.32C80.5275 11.1467 80.2075 11.8267 79.5675 12.36C78.9542 12.8667 78.2742 13.12 77.5275 13.12C76.7808 13.12 76.0742 12.8667 75.4075 12.36C74.7675 11.8267 74.4475 11.1467 74.4475 10.32ZM91.0147 16.52L91.4547 19.64L91.3747 19.36C91.988 18.2667 92.8547 17.3867 93.9747 16.72C95.0947 16.0267 96.468 15.68 98.0947 15.68C99.748 15.68 101.121 16.1733 102.215 17.16C103.335 18.12 103.908 19.3733 103.935 20.92V34H98.3347V23C98.308 22.2267 98.0947 21.6133 97.6947 21.16C97.3214 20.68 96.6814 20.44 95.7747 20.44C94.9214 20.44 94.1747 20.72 93.5347 21.28C92.8947 21.84 92.4014 22.6 92.0547 23.56C91.708 24.52 91.5347 25.6267 91.5347 26.88V34H85.9347V16.52H91.0147ZM109.685 2.44H115.285V34H109.685V2.44ZM121.052 16.52H126.652V34H121.052V16.52ZM120.932 10.32C120.932 9.49333 121.252 8.81333 121.892 8.28C122.559 7.74667 123.265 7.48 124.012 7.48C124.759 7.48 125.439 7.74667 126.052 8.28C126.692 8.81333 127.012 9.49333 127.012 10.32C127.012 11.1467 126.692 11.8267 126.052 12.36C125.439 12.8667 124.759 13.12 124.012 13.12C123.265 13.12 122.559 12.8667 121.892 12.36C121.252 11.8267 120.932 11.1467 120.932 10.32ZM132.419 34V2.44H138.019V34H132.419ZM142.459 22.12L150.379 34H143.859L138.779 25.32L142.459 22.12ZM136.339 29.16L135.779 23.84L146.339 16.08L149.739 19.08L136.339 29.16Z" fill="white"/>
<path d="M163 0H236V38H154L163 0Z" fill="#070707"/>
<path d="M176.72 32.44C175.947 33.0533 174.973 33.5467 173.8 33.92C172.653 34.2933 171.52 34.48 170.4 34.48C168.4 34.48 166.653 34.12 165.16 33.4C163.693 32.6533 162.547 31.6 161.72 30.24C160.92 28.8533 160.52 27.1867 160.52 25.24C160.52 23.2933 160.96 21.64 161.84 20.28C162.72 18.8933 163.867 17.84 165.28 17.12C166.72 16.4 168.227 16.04 169.8 16.04C171.373 16.04 172.733 16.2533 173.88 16.68C175.053 17.1067 176.053 17.6667 176.88 18.36L174.16 21.96C173.787 21.6667 173.267 21.3733 172.6 21.08C171.96 20.76 171.2 20.6 170.32 20.6C169.547 20.6 168.84 20.8 168.2 21.2C167.56 21.6 167.053 22.1467 166.68 22.84C166.307 23.5333 166.12 24.3333 166.12 25.24C166.12 26.0933 166.32 26.88 166.72 27.6C167.12 28.32 167.667 28.8933 168.36 29.32C169.08 29.72 169.92 29.92 170.88 29.92C171.493 29.92 172.053 29.84 172.56 29.68C173.093 29.4933 173.547 29.24 173.92 28.92L176.72 32.44ZM179.661 25.04C179.661 23.2533 180.074 21.6533 180.901 20.24C181.754 18.8267 182.941 17.72 184.461 16.92C185.981 16.0933 187.727 15.68 189.701 15.68C191.701 15.68 193.434 16.0933 194.901 16.92C196.367 17.72 197.487 18.8267 198.261 20.24C199.061 21.6533 199.461 23.2533 199.461 25.04C199.461 26.8267 199.061 28.44 198.261 29.88C197.487 31.2933 196.367 32.4133 194.901 33.24C193.434 34.0667 191.674 34.48 189.621 34.48C187.701 34.48 185.981 34.1067 184.461 33.36C182.967 32.6133 181.794 31.5333 180.941 30.12C180.087 28.7067 179.661 27.0133 179.661 25.04ZM185.301 25.08C185.301 25.9867 185.487 26.8133 185.861 27.56C186.234 28.28 186.741 28.8533 187.381 29.28C188.021 29.7067 188.741 29.92 189.541 29.92C190.421 29.92 191.181 29.7067 191.821 29.28C192.461 28.8533 192.954 28.28 193.301 27.56C193.647 26.8133 193.821 25.9867 193.821 25.08C193.821 24.1467 193.647 23.32 193.301 22.6C192.954 21.88 192.461 21.3067 191.821 20.88C191.181 20.4533 190.421 20.24 189.541 20.24C188.741 20.24 188.021 20.4533 187.381 20.88C186.741 21.3067 186.234 21.88 185.861 22.6C185.487 23.32 185.301 24.1467 185.301 25.08ZM208.952 16.52L209.392 19.6L209.312 19.36C210.006 18.1867 210.872 17.28 211.912 16.64C212.952 15.9733 214.206 15.64 215.672 15.64C216.632 15.64 217.472 15.7733 218.192 16.04C218.939 16.3067 219.566 16.7067 220.072 17.24C220.579 17.7467 220.926 18.4133 221.112 19.24L220.912 19.28C221.659 18.1867 222.552 17.3067 223.592 16.64C224.659 15.9733 225.766 15.64 226.912 15.64C228.646 15.64 230.019 16.1333 231.032 17.12C232.072 18.08 232.606 19.3333 232.632 20.88V34H227.072V23.2C227.046 22.4267 226.926 21.8 226.712 21.32C226.499 20.8133 226.006 20.5333 225.232 20.48C224.326 20.48 223.552 20.8 222.912 21.44C222.299 22.0533 221.832 22.8533 221.512 23.84C221.219 24.8 221.072 25.8 221.072 26.84V34H215.472V23.2C215.446 22.4267 215.299 21.8 215.032 21.32C214.792 20.8133 214.286 20.5333 213.512 20.48C212.632 20.48 211.886 20.8 211.272 21.44C210.686 22.0533 210.232 22.84 209.912 23.8C209.619 24.76 209.472 25.7467 209.472 26.76V34H203.872V16.52H208.952Z" fill="white"/>
</g>
<defs>
<clipPath id="clip0_1_2">
<rect width="236" height="38" fill="white"/>
</clipPath>
</defs>
</svg>
